<svg xmlns="http://www.w3.org/2000/svg" xmlns:xlink="http://www.w3.org/1999/xlink" xml:space="preserve" version="1.1" style="shape-rendering:geometricPrecision;text-rendering:geometricPrecision;image-rendering:optimizeQuality;" viewBox="0 0 4164 12905" x="0px" y="0px" fill-rule="evenodd" clip-rule="evenodd"><defs><style type="text/css">
   
    .fil0 {fill:black;fill-rule:nonzero}
   
  </style></defs><g><path class="fil0" d="M4019 9823l-3886 0c24,52 24,100 0,153l3884 0c-23,-48 -23,-105 2,-153z"/><path class="fil0" d="M4164 10088l-4164 -1 0 237 4164 0c0,-22 0,-236 0,-236z"/><path class="fil0" d="M4164 8930c0,-234 -239,-394 -480,-394l-3204 0c-241,0 -480,160 -480,394l0 782 4164 0 0 -782z"/><path class="fil0" d="M3283 7926c-801,0 -1602,0 -2402,0 -108,0 -105,161 0,161l2402 0c107,0 105,-161 0,-161z"/><path class="fil0" d="M2716 4447c-9,-128 86,-223 203,-260l-1 -19 -1672 0 -1 19c117,37 212,132 203,260l-222 3026c-11,136 -134,238 -264,277l-5 65 2250 0 -5 -65c-131,-39 -254,-141 -264,-277l-222 -3026z"/><path class="fil0" d="M3237 3804l-2311 0c-168,0 -164,253 0,253l2311 0c169,0 165,-253 0,-253z"/><path class="fil0" d="M3015 3693c-53,-82 -53,-188 0,-270l-1866 0c53,82 53,188 0,270l1866 0z"/><path class="fil0" d="M926 3312l2311 0c169,0 165,-252 0,-252l-2311 0c-168,0 -164,252 0,252z"/><path class="fil0" d="M1284 2948l1596 0c464,-533 212,-1395 -150,-1911l-608 1362c-72,159 -310,49 -240,-107l666 -1492c-110,-131 -211,-235 -326,-347 37,-38 67,-66 88,-117 63,-159 -53,-336 -228,-336 -216,0 -324,259 -178,413l38 40c-595,580 -1354,1695 -658,2495z"/><path class="fil0" d="M858 8425l2448 0c-61,-60 -103,-139 -116,-227l-2216 0c-13,88 -55,167 -116,227z"/></g><text x="0" y="10339" fill="#000000" font-size="5px" font-weight="bold" font-family="'Helvetica Neue', Helvetica, Arial-Unicode, Arial, Sans-serif">Created by Joni Ramadhan</text><text x="0" y="10344" fill="#000000" font-size="5px" font-weight="bold" font-family="'Helvetica Neue', Helvetica, Arial-Unicode, Arial, Sans-serif">from the Noun Project</text></svg>