<svg xmlns="http://www.w3.org/2000/svg" xmlns:xlink="http://www.w3.org/1999/xlink" xml:space="preserve" version="1.1" style="shape-rendering:geometricPrecision;text-rendering:geometricPrecision;image-rendering:optimizeQuality;" viewBox="0 0 4386 13182.5" x="0px" y="0px" fill-rule="evenodd" clip-rule="evenodd"><defs><style type="text/css">
   
    .fil0 {fill:black;fill-rule:nonzero}
   
  </style></defs><g><path class="fil0" d="M969 8536l2448 0c-61,-60 -103,-139 -116,-227l-2216 0c-13,88 -55,167 -116,227zm426 -5476l1596 0c465,-534 212,-1396 -150,-1912l-608 1362c-71,159 -310,49 -240,-107l666 -1492c-110,-131 -211,-235 -326,-347 37,-38 67,-65 88,-117 63,-159 -53,-336 -228,-336 -215,0 -324,259 -177,414l37 39c-595,580 -1354,1696 -658,2496zm53 1490c7,-85 -80,-143 -158,-155 -29,-3 -51,-29 -48,-59 1,-14 3,-37 4,-57l-209 0c-307,0 -326,-475 18,-475 177,-2 177,-267 0,-270 -350,0 -319,-474 -18,-474l217 0c-414,-580 -180,-1429 195,-1967 150,-216 317,-400 452,-534 -163,-235 5,-559 292,-559 288,0 455,324 292,559 110,109 200,209 303,335l-694 1554c-11,24 27,41 37,17l686 -1536c124,165 220,298 319,492 239,470 320,1186 -4,1639l217 0c307,0 326,474 -18,475 -177,2 -177,267 0,269 350,0 319,475 18,475l-209 0c0,19 3,39 4,57 3,28 -17,54 -45,59 -83,15 -168,69 -161,155l222 3026c7,95 122,170 213,187 65,9 49,112 57,166 212,33 202,361 -16,379 41,210 210,228 381,228 302,0 591,208 591,505l0 834c0,31 -25,56 -56,56 -143,0 -139,163 0,163 31,0 56,25 56,56l0 341c0,30 -25,55 -56,55l-4274 0c-31,0 -56,-25 -56,-55l0 -344c0,-30 24,-55 55,-55 120,-4 130,-155 -3,-163 -29,-2 -52,-26 -52,-55l0 -833c0,-297 289,-505 591,-505 171,0 340,-18 381,-228 -222,-18 -224,-344 -17,-379 17,-70 -11,-152 55,-166 96,-20 209,-90 216,-187l222 -3026zm-411 -1127l2312 0c168,0 164,-252 0,-252l-2312 0c-168,0 -164,252 0,252zm2089 381c-53,-81 -53,-188 0,-270l-1866 0c53,82 53,189 0,270l1866 0zm223 111l-2312 0c-168,0 -164,253 0,253l2312 0c168,0 164,-253 0,-253zm-522 643c-9,-127 86,-223 203,-260l-1 -19 -1672 0 -1 19c117,37 212,133 203,260l-222 3026c-10,137 -133,238 -264,277l-5 65 2250 0 -5 -65c-131,-39 -254,-140 -264,-277l-222 -3026zm567 3479c-801,0 -1601,0 -2402,0 -108,0 -105,161 0,161l2402 0c108,0 105,-161 0,-161zm881 1004c0,-234 -239,-394 -480,-394l-3204 0c-241,0 -480,160 -480,394l0 782 4164 0 0 -782zm0 1158l-4164 -1 0 237 4164 0c0,-21 0,-236 0,-236zm-145 -265l-3886 0c24,53 24,100 0,153l3884 0c-23,-48 -22,-105 2,-153z"/></g><text x="0" y="10561" fill="#000000" font-size="5px" font-weight="bold" font-family="'Helvetica Neue', Helvetica, Arial-Unicode, Arial, Sans-serif">Created by Joni Ramadhan</text><text x="0" y="10566" fill="#000000" font-size="5px" font-weight="bold" font-family="'Helvetica Neue', Helvetica, Arial-Unicode, Arial, Sans-serif">from the Noun Project</text></svg>