<svg xmlns="http://www.w3.org/2000/svg" xmlns:xlink="http://www.w3.org/1999/xlink" xml:space="preserve" version="1.1" style="shape-rendering:geometricPrecision;text-rendering:geometricPrecision;image-rendering:optimizeQuality;" viewBox="0 0 4164 12777.5" x="0px" y="0px" fill-rule="evenodd" clip-rule="evenodd"><defs><style type="text/css">
   
    .fil0 {fill:black;fill-rule:nonzero}
   
  </style></defs><g><path class="fil0" d="M4019 9720l-3886 0c24,53 24,101 0,154l3884 0c-23,-49 -23,-105 2,-154z"/><path class="fil0" d="M4164 9986l-4164 -1 0 237 4164 0c0,-22 0,-236 0,-236z"/><path class="fil0" d="M0 9609l4164 0 0 -781c0,-235 -239,-395 -480,-395l-3204 0c-241,0 -480,160 -480,395l0 781z"/><path class="fil0" d="M3283 7824c-801,0 -1602,0 -2402,0 -108,0 -105,161 0,161l2402 0c107,0 105,-161 0,-161z"/><path class="fil0" d="M2716 4344c-9,-127 86,-222 203,-259l-1 -20 -1672 0 -1 20c117,37 212,132 203,259l-222 3027c-11,136 -134,238 -264,277l-5 64 2250 0 -5 -64c-131,-39 -254,-141 -264,-277l-222 -3027z"/><path class="fil0" d="M3237 3702l-2311 0c-168,0 -164,252 0,252l2311 0c169,0 165,-252 0,-252z"/><path class="fil0" d="M3015 3590c-53,-81 -53,-188 0,-269l-1866 0c53,81 53,188 0,269l1866 0z"/><path class="fil0" d="M2170 766c-56,-60 -39,-167 -39,-245 0,-31 25,-56 56,-56 78,0 185,-17 244,39 89,-25 89,-151 0,-176 -59,56 -166,39 -244,39 -31,0 -56,-25 -56,-56 0,-78 -17,-185 39,-245 -25,-88 -151,-88 -176,0 56,60 39,167 39,245 0,31 -25,56 -56,56 -78,0 -185,17 -245,-39 -88,25 -88,151 0,176 60,-56 167,-39 245,-39 31,0 56,25 56,56 0,78 17,185 -39,245 25,88 151,88 176,0z"/><path class="fil0" d="M1896 942c-47,0 -47,71 0,71l372 0c46,0 46,-71 0,-71 -124,0 -248,0 -372,0z"/><path class="fil0" d="M2802 1700c14,-75 41,-150 87,-201 -45,-175 -167,-375 -349,-375l-916 0c-182,0 -304,200 -349,375 46,51 73,126 87,201l153 811c20,107 17,227 -3,335l1139 0c-19,-108 -22,-228 -2,-335l153 -811z"/><path class="fil0" d="M926 3210l2311 0c169,0 165,-253 0,-253 -770,0 -1540,0 -2311,0 -168,0 -164,253 0,253z"/><path class="fil0" d="M858 8322l2448 0c-61,-59 -103,-138 -116,-226l-2216 0c-13,88 -55,167 -116,226z"/></g><text x="0" y="10237" fill="#000000" font-size="5px" font-weight="bold" font-family="'Helvetica Neue', Helvetica, Arial-Unicode, Arial, Sans-serif">Created by Joni Ramadhan</text><text x="0" y="10242" fill="#000000" font-size="5px" font-weight="bold" font-family="'Helvetica Neue', Helvetica, Arial-Unicode, Arial, Sans-serif">from the Noun Project</text></svg>