<svg xmlns="http://www.w3.org/2000/svg" xmlns:xlink="http://www.w3.org/1999/xlink" xml:space="preserve" version="1.1" style="shape-rendering:geometricPrecision;text-rendering:geometricPrecision;image-rendering:optimizeQuality;" viewBox="0 0 4386 13052.5" x="0px" y="0px" fill-rule="evenodd" clip-rule="evenodd"><defs><style type="text/css">
   
    .fil0 {fill:black;fill-rule:nonzero}
   
  </style></defs><g><path class="fil0" d="M969 8432l2448 0c-61,-60 -103,-138 -116,-226l-2216 0c-13,88 -55,166 -116,226zm68 -5112l2312 0c168,0 164,-253 0,-253 -771,0 -1541,0 -2312,0 -168,0 -164,253 0,253zm2294 111c-177,2 -177,267 0,269 350,0 319,475 18,475l-209 0c0,19 3,39 4,57 3,28 -17,54 -45,59 -83,15 -168,69 -161,155l222 3026c7,95 122,170 213,187 25,3 45,24 47,50 2,23 4,79 10,116 212,33 202,361 -16,380 41,209 210,227 381,227 302,0 591,208 591,505l0 834c0,31 -25,56 -56,56 -143,0 -139,164 0,164 31,0 56,24 56,55l0 341c0,30 -25,55 -56,55l-4274 0c-31,0 -56,-25 -56,-55l0 -343c0,-31 24,-56 55,-56 120,-4 130,-154 -3,-163 -29,-2 -52,-26 -52,-55l0 -833c0,-297 289,-505 591,-505 171,0 340,-18 381,-227 -222,-18 -224,-345 -17,-380 5,-22 9,-89 11,-116 2,-24 19,-44 44,-50 96,-20 209,-90 216,-187l222 -3026c7,-84 -80,-142 -158,-155 -29,-3 -51,-29 -48,-59 1,-14 3,-36 4,-57l-209 0c-307,0 -326,-475 18,-475 177,-2 177,-267 0,-269 -350,0 -319,-475 -18,-475l474 0c20,-102 24,-215 6,-315l-153 -811c-10,-53 -34,-130 -71,-158 -18,-12 -28,-35 -23,-57 52,-240 217,-492 465,-492l130 0c-23,-91 43,-182 147,-182 -18,-37 -40,-108 7,-137 8,-5 14,-15 14,-26l0 -92c-23,0 -95,-4 -108,4 -15,8 -20,38 -59,38 -267,-3 -261,-402 0,-405 48,0 41,42 75,42l92 0c0,-22 3,-94 -4,-107 -9,-16 -40,-21 -38,-63 14,-271 402,-250 404,4 0,38 -42,54 -42,75l0 91c23,0 95,4 108,-3 15,-9 20,-39 59,-39 267,3 261,402 0,405 -48,0 -41,-42 -75,-42l-92 0c0,22 -3,94 4,107 9,16 38,21 38,60 0,30 -7,60 -21,88 109,0 168,97 147,182l130 0c248,0 412,252 465,492 4,21 -4,42 -21,55 -39,31 -62,104 -73,160l-153 811c-18,95 -15,215 6,315l474 0c307,0 326,475 -18,475zm-418 -1621c14,-75 41,-150 87,-202 -45,-175 -167,-374 -349,-374l-916 0c-182,0 -304,199 -349,374 46,52 73,127 87,202l153 811c20,106 17,226 -3,335l1139 0c-19,-109 -22,-229 -2,-335l153 -811zm-906 -758c-46,0 -46,71 0,71l372 0c46,0 46,-71 0,-71 -124,0 -248,0 -372,0zm274 -177c-56,-59 -39,-166 -39,-245 0,-30 25,-55 56,-55 78,0 185,-17 245,39 88,-25 88,-152 0,-177 -60,56 -167,40 -245,40 -31,0 -56,-25 -56,-56 0,-79 -17,-185 39,-245 -25,-89 -151,-89 -176,0 56,60 39,166 39,245 0,31 -25,56 -56,56 -78,0 -185,16 -245,-40 -88,25 -88,152 0,177 60,-56 167,-39 245,-39 31,0 56,25 56,55 0,79 17,186 -39,245 25,89 151,89 176,0zm845 2825c-53,-81 -53,-188 0,-269l-1866 0c53,81 53,188 0,269l1866 0zm223 111l-2312 0c-168,0 -164,253 0,253l2312 0c168,0 164,-253 0,-253zm-522 643c-9,-127 86,-223 203,-260l-1 -19 -1672 0 -1 19c117,37 212,133 203,260l-222 3026c-10,137 -133,238 -264,278l-5 64 2250 0 -5 -64c-131,-40 -254,-141 -264,-278l-222 -3026zm567 3479c-801,0 -1601,0 -2402,0 -108,0 -105,161 0,161l2402 0c108,0 105,-161 0,-161zm-3283 1786l4164 0 0 -782c0,-234 -239,-394 -480,-394l-3204 0c-241,0 -480,160 -480,394l0 782zm4164 376l-4164 -1 0 237 4164 0c0,-21 0,-235 0,-236zm-145 -265l-3886 0c24,53 24,100 0,153l3884 0c-23,-48 -22,-105 2,-153z"/></g><text x="0" y="10457" fill="#000000" font-size="5px" font-weight="bold" font-family="'Helvetica Neue', Helvetica, Arial-Unicode, Arial, Sans-serif">Created by Joni Ramadhan</text><text x="0" y="10462" fill="#000000" font-size="5px" font-weight="bold" font-family="'Helvetica Neue', Helvetica, Arial-Unicode, Arial, Sans-serif">from the Noun Project</text></svg>