<svg xmlns="http://www.w3.org/2000/svg" xmlns:xlink="http://www.w3.org/1999/xlink" xml:space="preserve" version="1.1" style="shape-rendering:geometricPrecision;text-rendering:geometricPrecision;image-rendering:optimizeQuality;" viewBox="0 0 4862 10356.25" x="0px" y="0px" fill-rule="evenodd" clip-rule="evenodd"><defs><style type="text/css">
   
    .fil0 {fill:black;fill-rule:nonzero}
   
  </style></defs><g><path class="fil0" d="M1074 6057l2714 0c-68,-66 -115,-154 -129,-251l-2457 0c-13,97 -60,185 -128,251zm550 -2369c314,-318 802,-777 817,-1255 6,-175 -33,-343 -70,-460 4,69 4,146 -22,215 -175,468 -707,308 -925,353 -35,7 -158,179 -207,221 -441,384 -845,-117 -698,-479 52,-126 510,-551 659,-721 116,-131 145,-298 248,-455 71,-109 147,-186 188,-352 45,-183 36,-384 49,-572 13,-191 70,-227 238,-133 312,174 373,435 506,520 35,-64 24,-247 8,-293 -31,-91 -153,-237 97,-158 812,257 1566,716 1958,1508 444,898 191,1767 -47,2581 -119,411 -233,790 -251,1214l88 0c255,0 250,384 0,384l-476 0c47,231 233,251 423,251 335,0 655,230 655,560l0 925c0,34 -28,61 -62,61 -159,0 -155,182 0,182 34,0 62,27 62,61l0 378c0,34 -28,61 -62,61l-4738 0c-34,0 -62,-27 -62,-61l0 -381c0,-34 27,-61 61,-61 131,-5 145,-171 -3,-181 -33,-2 -58,-29 -58,-61l0 -923c0,-330 320,-560 655,-560 190,0 376,-20 423,-251l-476 0c-256,0 -250,-384 0,-384l114 0c-79,-733 419,-1238 908,-1734zm-1501 3795l4616 0 0 -866c0,-260 -265,-437 -532,-437l-3552 0c-267,0 -532,177 -532,437l0 866zm4616 417l-4616 0 0 262 4616 0 0 -262zm-161 -294l-4308 0c27,59 27,112 0,170l4306 0c-25,-53 -25,-116 2,-170zm-2804 -7415c-13,184 -7,402 -52,590 -47,190 -127,270 -203,387 -102,154 -125,317 -258,468 -134,152 -599,591 -639,689 -104,254 169,660 522,354 114,-99 147,-223 258,-246 227,-48 701,96 843,-284 43,-113 -18,-294 27,-382 24,-49 79,-59 119,-20 101,99 165,563 161,690 -17,520 -507,982 -849,1328 -473,481 -955,969 -875,1657l3232 0c10,-398 131,-814 257,-1245 232,-794 479,-1641 53,-2501 -371,-750 -1081,-1187 -1851,-1438 24,67 43,317 -29,407 -26,34 -61,48 -105,35 -66,-18 -116,-97 -166,-170 -109,-155 -180,-256 -372,-364 -88,-49 -66,-63 -73,45zm2486 5342c-1219,0 -2439,0 -3658,0 -108,0 -105,162 0,162 1219,0 2439,0 3658,0 108,0 105,-162 0,-162z"/><path class="fil0" d="M880 2224l448 -461c84,-85 216,41 131,128l-448 461c-76,79 -217,-23 -131,-128z"/></g><text x="0" y="8300" fill="#000000" font-size="5px" font-weight="bold" font-family="'Helvetica Neue', Helvetica, Arial-Unicode, Arial, Sans-serif">Created by Joni Ramadhan</text><text x="0" y="8305" fill="#000000" font-size="5px" font-weight="bold" font-family="'Helvetica Neue', Helvetica, Arial-Unicode, Arial, Sans-serif">from the Noun Project</text></svg>