<svg xmlns="http://www.w3.org/2000/svg" xmlns:xlink="http://www.w3.org/1999/xlink" xml:space="preserve" version="1.1" style="shape-rendering:geometricPrecision;text-rendering:geometricPrecision;image-rendering:optimizeQuality;" viewBox="0 0 4386 13252.5" x="0px" y="0px" fill-rule="evenodd" clip-rule="evenodd"><defs><style type="text/css">
   
    .fil0 {fill:black;fill-rule:nonzero}
   
  </style></defs><g><path class="fil0" d="M969 8591l2448 0c-61,-59 -103,-138 -116,-226l-2216 0c-13,88 -55,167 -116,226zm1545 -8098c354,122 613,437 661,811 185,25 249,256 110,376 -135,231 -224,777 -301,1074 -76,291 133,361 365,361 307,0 326,475 -18,475 -177,2 -177,267 0,269 350,0 319,475 18,475l-209 0c1,42 20,105 -41,116 -83,15 -168,70 -161,156l222 3026c7,95 122,170 213,186 65,10 49,113 57,166 212,34 202,362 -16,380 41,210 210,227 381,227 302,0 591,208 591,506l0 834c0,31 -25,55 -56,55 -143,0 -139,164 0,164 31,0 56,25 56,56l0 340c0,31 -25,56 -56,56l-4274 0c-31,0 -56,-25 -56,-56l0 -343c0,-31 24,-55 55,-56 120,-3 130,-154 -3,-163 -29,-1 -52,-26 -52,-55l0 -832c0,-298 289,-506 591,-506 171,0 340,-17 381,-227 -222,-18 -224,-345 -17,-380 17,-69 -11,-152 55,-165 96,-20 209,-91 216,-187l222 -3026c7,-85 -80,-143 -158,-155 -64,-8 -45,-74 -44,-117l-209 0c-307,0 -326,-475 18,-475 177,-2 177,-267 0,-269 -350,0 -319,-475 -18,-475 232,0 441,-70 365,-361 -78,-298 -166,-841 -300,-1074 -147,-117 -64,-348 109,-375 47,-375 306,-690 661,-812 -102,-230 66,-493 321,-493 255,0 423,263 321,493zm528 1019c0,283 -428,280 -428,5 -2,-137 -204,-136 -207,0 0,278 -428,274 -428,0 -3,-125 -191,-144 -205,-21 -37,339 -414,300 -431,16 -9,-159 -318,-117 -152,102 143,229 240,811 318,1112 37,142 12,287 -88,389l1544 0c-100,-102 -125,-247 -88,-389 61,-234 223,-1025 331,-1126 160,-151 -161,-282 -166,-88zm-1721 -194c80,33 132,110 133,198 2,126 197,141 207,-3 19,-278 403,-283 428,-3 14,157 207,122 207,6 4,-284 425,-281 429,0 0,100 181,181 209,-32 10,-76 61,-139 131,-166 -54,-419 -339,-657 -727,-759 51,-69 95,-115 95,-208 0,-213 -259,-320 -410,-170 -129,130 -63,259 25,378 -388,102 -674,340 -727,759zm-284 2161l2312 0c168,0 164,-253 0,-253l-2312 0c-168,0 -164,253 0,253zm2089 380c-53,-81 -53,-188 0,-269l-1866 0c53,81 53,188 0,269l1866 0zm223 111l-2312 0c-168,0 -164,253 0,253l2312 0c168,0 164,-253 0,-253zm-522 643c-9,-127 86,-222 203,-260l-1 -19 -1672 0 -1 19c117,38 212,133 203,260l-222 3027c-10,136 -133,238 -264,277l-5 64 2250 0 -5 -64c-131,-39 -254,-141 -264,-277l-222 -3027zm567 3479c-801,0 -1601,0 -2402,0 -108,0 -105,162 0,162l2402 0c108,0 105,-162 0,-162zm881 1005c0,-235 -239,-395 -480,-395l-3204 0c-241,0 -480,160 -480,395l0 781 4164 0 0 -781zm0 1158l-4164 -1 0 237 4164 0c0,-22 0,-236 0,-236zm-145 -266l-3886 0c24,53 24,101 0,154l3884 0c-23,-49 -22,-105 2,-154z"/></g><text x="0" y="10617" fill="#000000" font-size="5px" font-weight="bold" font-family="'Helvetica Neue', Helvetica, Arial-Unicode, Arial, Sans-serif">Created by Joni Ramadhan</text><text x="0" y="10622" fill="#000000" font-size="5px" font-weight="bold" font-family="'Helvetica Neue', Helvetica, Arial-Unicode, Arial, Sans-serif">from the Noun Project</text></svg>