<svg xmlns="http://www.w3.org/2000/svg" xmlns:xlink="http://www.w3.org/1999/xlink" xml:space="preserve" version="1.1" style="shape-rendering:geometricPrecision;text-rendering:geometricPrecision;image-rendering:optimizeQuality;" viewBox="0 0 4164 12975" x="0px" y="0px" fill-rule="evenodd" clip-rule="evenodd"><defs><style type="text/css">
   
    .fil0 {fill:black;fill-rule:nonzero}
   
  </style></defs><g><path class="fil0" d="M4019 9878l-3886 0c24,53 24,101 0,154l3884 0c-23,-49 -23,-105 2,-154z"/><path class="fil0" d="M4164 10144l-4164 -1 0 237 4164 0c0,-22 0,-236 0,-236z"/><path class="fil0" d="M4164 8986c0,-235 -239,-395 -480,-395l-3204 0c-241,0 -480,160 -480,395l0 781 4164 0 0 -781z"/><path class="fil0" d="M3283 7981c-801,0 -1602,0 -2402,0 -108,0 -105,162 0,162l2402 0c107,0 105,-162 0,-162z"/><path class="fil0" d="M2716 4502c-9,-127 86,-222 203,-259l-1 -20 -1672 0 -1 20c117,37 212,132 203,259l-222 3027c-11,136 -134,238 -264,277l-5 64 2250 0 -5 -64c-131,-39 -254,-141 -264,-277l-222 -3027z"/><path class="fil0" d="M3237 3860l-2311 0c-168,0 -164,252 0,252l2311 0c169,0 165,-252 0,-252z"/><path class="fil0" d="M3015 3748c-53,-81 -53,-188 0,-269l-1866 0c53,81 53,188 0,269l1866 0z"/><path class="fil0" d="M926 3368l2311 0c169,0 165,-253 0,-253l-2311 0c-168,0 -164,253 0,253z"/><path class="fil0" d="M1210 1207c80,33 132,110 133,198 2,126 197,141 207,-3 19,-277 403,-283 428,-3 14,158 207,122 207,6 4,-284 425,-281 429,0 0,100 181,181 209,-32 10,-76 61,-139 131,-166 -54,-419 -339,-657 -727,-759 51,-69 95,-115 95,-208 0,-213 -259,-320 -410,-170 -129,130 -63,259 25,378 -388,102 -674,340 -727,759z"/><path class="fil0" d="M2931 1401c0,283 -428,280 -428,5 -3,-137 -204,-136 -207,0 0,278 -428,274 -428,0 -3,-125 -191,-144 -205,-21 -37,339 -414,300 -431,16 -9,-158 -318,-117 -152,102 142,229 240,811 318,1112 37,142 12,287 -88,389l1544 0c-100,-102 -125,-247 -88,-389 61,-234 223,-1025 331,-1126 160,-150 -161,-282 -166,-88z"/><path class="fil0" d="M858 8480l2448 0c-61,-59 -103,-138 -116,-226l-2216 0c-13,88 -55,167 -116,226z"/></g><text x="0" y="10395" fill="#000000" font-size="5px" font-weight="bold" font-family="'Helvetica Neue', Helvetica, Arial-Unicode, Arial, Sans-serif">Created by Joni Ramadhan</text><text x="0" y="10400" fill="#000000" font-size="5px" font-weight="bold" font-family="'Helvetica Neue', Helvetica, Arial-Unicode, Arial, Sans-serif">from the Noun Project</text></svg>