<svg xmlns="http://www.w3.org/2000/svg" xmlns:xlink="http://www.w3.org/1999/xlink" xml:space="preserve" version="1.1" style="shape-rendering:geometricPrecision;text-rendering:geometricPrecision;image-rendering:optimizeQuality;" viewBox="0 0 4386 10577.5" x="0px" y="0px" fill-rule="evenodd" clip-rule="evenodd"><defs><style type="text/css">
   
    .fil0 {fill:black;fill-rule:nonzero}
   
  </style></defs><g><path class="fil0" d="M969 6452l2448 0c-61,-60 -103,-139 -116,-227l-2216 0c-13,88 -55,167 -116,227zm23 -4732l2475 0c24,0 45,-29 45,-53l0 -229 -2564 0 0 229c0,27 18,53 44,53zm2418 -414c-28,-60 -31,-132 -8,-194l-2344 0c23,62 20,134 -8,194l2360 0zm102 -326l0 -848 -424 0 0 629 -646 0 0 -629 -424 0 0 629 -646 0 0 -629 -424 0 0 848 2564 0zm-574 1486l222 3026c7,95 122,170 213,187 25,3 45,24 47,50 2,23 4,79 10,115 212,34 202,362 -16,380 41,210 210,228 381,228 302,0 591,208 591,505l0 834c0,31 -25,56 -56,56 -143,0 -139,163 0,163 31,0 56,25 56,56l0 341c0,30 -25,55 -56,55l-4274 0c-31,0 -56,-25 -56,-55l0 -344c0,-30 24,-55 55,-55 120,-4 130,-155 -3,-163 -29,-2 -52,-26 -52,-56l0 -832c0,-297 289,-505 591,-505 171,0 340,-18 381,-228 -222,-18 -224,-344 -17,-379 17,-70 -11,-152 55,-166 96,-20 209,-90 216,-187l222 -3026c7,-85 -80,-143 -158,-155 -64,-7 -45,-74 -44,-116l-209 0c-236,0 -301,-280 -164,-410 -23,-32 -36,-73 -36,-118l0 -379c45,-2 78,4 104,-28 39,-48 17,-122 -22,-140 -24,-8 -52,-11 -82,-10l0 -1110 646 0 0 629 424 0 0 -629c215,0 430,0 646,0l0 629 424 0 0 -629c215,0 430,0 646,0l0 1110 -56 2c-64,0 -90,98 -49,148 27,32 60,26 105,28l0 379c0,62 -28,124 -75,158 89,140 10,370 -199,370l-209 0c1,42 20,104 -41,116 -83,15 -168,69 -161,155zm483 -614l-2429 0c-122,0 -100,232 45,232l2312 0c138,0 160,-171 72,-232zm-594 622c-9,-128 86,-223 203,-260l-1 -19 -1672 0 -1 19c117,37 212,132 203,260l-222 3026c-10,137 -133,238 -264,277l-5 65 2250 0 -5 -65c-131,-39 -254,-140 -264,-277l-222 -3026zm567 3479c-801,0 -1601,0 -2402,0 -108,0 -105,161 0,161l2402 0c108,0 105,-161 0,-161zm-3283 1786l4164 0 0 -782c0,-234 -239,-394 -480,-394l-3204 0c-241,0 -480,160 -480,394l0 782zm4164 376l-4164 -1 0 237 4164 0c0,-21 0,-236 0,-236zm-145 -265l-3886 0c24,53 24,100 0,153l3884 0c-23,-48 -22,-105 2,-153z"/></g><text x="0" y="8477" fill="#000000" font-size="5px" font-weight="bold" font-family="'Helvetica Neue', Helvetica, Arial-Unicode, Arial, Sans-serif">Created by Joni Ramadhan</text><text x="0" y="8482" fill="#000000" font-size="5px" font-weight="bold" font-family="'Helvetica Neue', Helvetica, Arial-Unicode, Arial, Sans-serif">from the Noun Project</text></svg>