<svg xmlns="http://www.w3.org/2000/svg" xmlns:xlink="http://www.w3.org/1999/xlink" xml:space="preserve" version="1.1" style="shape-rendering:geometricPrecision;text-rendering:geometricPrecision;image-rendering:optimizeQuality;" viewBox="0 0 4164 10273.75" x="0px" y="0px" fill-rule="evenodd" clip-rule="evenodd"><defs><style type="text/css">
   
    .fil0 {fill:black;fill-rule:nonzero}
   
  </style></defs><g><path class="fil0" d="M4019 7718l-3886 0c24,53 24,100 0,153l3884 0c-23,-48 -22,-105 2,-153z"/><path class="fil0" d="M4164 7983l-4164 -1 0 237 4164 0c0,-21 0,-236 0,-236z"/><path class="fil0" d="M0 7607l4164 0 0 -782c0,-234 -239,-394 -480,-394l-3204 0c-241,0 -480,160 -480,394l0 782z"/><path class="fil0" d="M3283 5821c-801,0 -1601,0 -2402,0 -108,0 -105,161 0,161l2402 0c108,0 105,-161 0,-161z"/><path class="fil0" d="M2716 2342c-9,-128 86,-223 203,-260l-1 -19 -1672 0 -1 19c117,37 212,132 203,260l-222 3026c-10,136 -134,238 -264,277l-5 65 2250 0 -5 -65c-131,-39 -254,-141 -264,-277l-222 -3026z"/><path class="fil0" d="M3310 1720l-2429 0c-123,0 -100,231 45,231l2312 0c138,0 160,-171 72,-231z"/><polygon class="fil0" points="3401,848 3401,0 2977,0 2977,629 2331,629 2331,0 1907,0 1907,629 1261,629 1261,0 837,0 837,848 "/><path class="fil0" d="M3299 1174c-28,-61 -31,-132 -8,-194l-2344 0c22,62 19,133 -9,194l2361 0z"/><path class="fil0" d="M881 1588l2475 0c24,0 45,-29 45,-53l0 -229 -2564 0 0 229c0,26 17,53 44,53z"/><path class="fil0" d="M858 6320l2448 0c-61,-60 -103,-139 -116,-227l-2216 0c-13,88 -55,167 -116,227z"/></g><text x="0" y="8234" fill="#000000" font-size="5px" font-weight="bold" font-family="'Helvetica Neue', Helvetica, Arial-Unicode, Arial, Sans-serif">Created by Joni Ramadhan</text><text x="0" y="8239" fill="#000000" font-size="5px" font-weight="bold" font-family="'Helvetica Neue', Helvetica, Arial-Unicode, Arial, Sans-serif">from the Noun Project</text></svg>